# xmcd
#
# Track frame offsets: 
#        150
#        22691
#        45377
#        67641
#        85778
#        102921
#        122171
#        142337
#        169366
#        192322
#        226520
#        250202
#        273143
#        292657
#
# Disc length: 4402 seconds
#
# Revision: 0
# Processed by: cddbd v1.5.2PL0 Copyright (c) Steve Scherf et al.
# Submitted via: ExactAudioCopy v1.0b3
#
DISCID=ae11300e
DTITLE=Gladys Knight and the Pips - Life [Expanded Edition] CD2
DYEAR=1985
DGENRE=Soul
TTITLE0=My Time (Extended Dance Mix)
TTITLE1=My Time (12'' Instrumental Mix)
TTITLE2=My Time (Body Slam Mix)
TTITLE3=My Time (Single Version)
TTITLE4=My Time (Instrumental Version)
TTITLE5=Keep Giving Me Love (Single Version)
TTITLE6=Do You Wanna Have Some Fun (Single Version)
TTITLE7=Do Wanna Have Some Fun (12'' Mix)
TTITLE8=Do You Wanna Have Some Fun (Instrumental Mix)
TTITLE9=Life (Instrumental Mix)
TTITLE10=Running The Race (Demo)
TTITLE11=How Deep Is Your Love (Demo)
TTITLE12=Beverly Hills
TTITLE13=One Hundred Ways - And I Am Telling You I'm Not Going (Medley
TTITLE13=)
EXTD=
EXTT0=
EXTT1=
EXTT2=
EXTT3=
EXTT4=
EXTT5=
EXTT6=
EXTT7=
EXTT8=
EXTT9=
EXTT10=
EXTT11=
EXTT12=
EXTT13=
PLAYORDER=
